<svg xmlns="http://www.w3.org/2000/svg" viewBox="0 0 1600 1000">
  <defs>
    <linearGradient id="cp-sky" x1="0" y1="0" x2="0" y2="1">
      <stop offset="0" stop-color="#6fa9cf"/>
      <stop offset="0.7" stop-color="#bcdcea"/>
      <stop offset="1" stop-color="#e6f2f0"/>
    </linearGradient>
  </defs>
  <rect width="1600" height="1000" fill="url(#cp-sky)"/>
  <!-- distant sea sliver -->
  <rect y="470" width="1600" height="70" fill="#9fc6cf" opacity="0.7"/>
  <!-- far hazy ridges -->
  <path d="M0 500 C 240 446 460 470 700 452 C 980 430 1240 466 1600 444 L1600 560 L0 560 Z" fill="#aac6c2" opacity="0.6"/>
  <path d="M0 540 C 260 492 520 516 820 500 C 1120 484 1360 520 1600 506 L1600 640 L0 640 Z" fill="#88ad9e" opacity="0.7"/>
  <!-- mid green ridges -->
  <path d="M0 640 C 300 560 560 600 860 576 C 1160 552 1380 612 1600 588 L1600 760 L0 760 Z" fill="#5f8a63"/>
  <!-- foreground macchia hill with peak -->
  <path d="M0 1000 L0 720 C 240 640 460 700 620 600 C 720 540 800 520 880 560 C 1040 640 1280 700 1600 700 L1600 1000 Z" fill="#3f6440"/>
  <!-- granite peak -->
  <path d="M820 540 L760 640 L900 640 Z" fill="#6d7b74"/>
  <path d="M820 540 L792 600 L848 600 Z" fill="#8a978f"/>
  <!-- macchia texture flecks -->
  <g fill="#345534" opacity="0.6">
    <circle cx="180" cy="820" r="26"/><circle cx="300" cy="860" r="20"/><circle cx="1180" cy="820" r="28"/><circle cx="1360" cy="870" r="22"/><circle cx="520" cy="900" r="18"/>
  </g>
</svg>
