<svg xmlns="http://www.w3.org/2000/svg" viewBox="0 0 1600 1000">
  <defs>
    <linearGradient id="sn-sky" x1="0" y1="0" x2="0" y2="1">
      <stop offset="0" stop-color="#7fb9d6"/>
      <stop offset="0.6" stop-color="#bfe1ed"/>
      <stop offset="1" stop-color="#e7f5f6"/>
    </linearGradient>
    <linearGradient id="sn-sea" x1="0" y1="0" x2="0" y2="1">
      <stop offset="0" stop-color="#2a93a6"/>
      <stop offset="0.5" stop-color="#4fb8bd"/>
      <stop offset="1" stop-color="#9fdcd4"/>
    </linearGradient>
    <radialGradient id="sn-sun" cx="0.3" cy="0.25" r="0.5">
      <stop offset="0" stop-color="#ffffff" stop-opacity="0.85"/>
      <stop offset="1" stop-color="#ffffff" stop-opacity="0"/>
    </radialGradient>
  </defs>
  <rect width="1600" height="1000" fill="#bfe1ed"/>
  <rect width="1600" height="620" fill="url(#sn-sky)"/>
  <rect width="1600" height="620" fill="url(#sn-sun)"/>
  <!-- sea -->
  <rect y="470" width="1600" height="530" fill="url(#sn-sea)"/>
  <g stroke="#ffffff" stroke-opacity="0.22" stroke-width="3" fill="none">
    <path d="M200 560 q 70 -10 140 0 t 140 0"/>
    <path d="M820 620 q 80 -12 160 0 t 160 0"/>
    <path d="M120 700 q 80 -12 160 0 t 160 0"/>
  </g>
  <!-- white cliffs -->
  <path d="M0 470 C 90 360 150 320 250 330 C 320 338 360 420 380 480 L 380 520 L0 520 Z" fill="#eee7da"/>
  <path d="M0 470 C 90 360 150 320 250 330 C 300 336 336 384 360 440" fill="none" stroke="#d8cdb8" stroke-width="4" opacity="0.6"/>
  <path d="M1600 470 C 1500 350 1430 322 1330 336 C 1250 348 1212 430 1196 492 L 1196 520 L1600 520 Z" fill="#e8e0d0"/>
  <!-- pebble shore foreground -->
  <path d="M0 880 C 360 840 760 860 1040 900 C 1300 936 1460 916 1600 928 L1600 1000 L0 1000 Z" fill="#d9cdb4"/>
  <path d="M0 900 C 380 868 780 884 1080 922 C 1320 952 1470 936 1600 946 L1600 1000 L0 1000 Z" fill="#cabfa6" opacity="0.8"/>
</svg>
